<svg width="30" height="30" viewBox="0 0 30 30" fill="none" xmlns="http://www.w3.org/2000/svg">
<path d="M10.3125 26.25C11.348 26.25 12.1875 25.4105 12.1875 24.375C12.1875 23.3395 11.348 22.5 10.3125 22.5C9.27697 22.5 8.4375 23.3395 8.4375 24.375C8.4375 25.4105 9.27697 26.25 10.3125 26.25Z" fill="white"/>
<path d="M23.4375 26.25C24.473 26.25 25.3125 25.4105 25.3125 24.375C25.3125 23.3395 24.473 22.5 23.4375 22.5C22.402 22.5 21.5625 23.3395 21.5625 24.375C21.5625 25.4105 22.402 26.25 23.4375 26.25Z" fill="white"/>
<path d="M26.7656 7.07695C26.6339 6.91585 26.468 6.78609 26.2799 6.69711C26.0918 6.60812 25.8862 6.56214 25.6781 6.5625H7.84512L7.48594 4.52461C7.44764 4.30754 7.33408 4.1109 7.1652 3.96924C6.99632 3.82758 6.78293 3.74995 6.5625 3.75H2.8125C2.56386 3.75 2.3254 3.84877 2.14959 4.02459C1.97377 4.2004 1.875 4.43886 1.875 4.6875C1.875 4.93614 1.97377 5.1746 2.14959 5.35041C2.3254 5.52623 2.56386 5.625 2.8125 5.625H5.77617L8.45156 20.7879C8.48986 21.005 8.60342 21.2016 8.7723 21.3433C8.94118 21.4849 9.15457 21.5625 9.375 21.5625H24.375C24.6236 21.5625 24.8621 21.4637 25.0379 21.2879C25.2137 21.1121 25.3125 20.8736 25.3125 20.625C25.3125 20.3764 25.2137 20.1379 25.0379 19.9621C24.8621 19.7863 24.6236 19.6875 24.375 19.6875H10.1613L9.83086 17.8125H23.9906C24.3157 17.8121 24.6307 17.6994 24.8823 17.4934C25.1339 17.2874 25.3065 17.0009 25.3711 16.6822L27.0586 8.24473C27.0993 8.04053 27.0941 7.82985 27.0434 7.6279C26.9927 7.42595 26.8979 7.23777 26.7656 7.07695Z" fill="white"/>
<rect x="0.5" y="0.5" width="29" height="29" stroke="black"/>
</svg>
