<svg width="500" height="500" viewBox="0 0 500 500" fill="none" xmlns="http://www.w3.org/2000/svg">
<path d="M171.875 437.5C189.134 437.5 203.125 423.509 203.125 406.25C203.125 388.991 189.134 375 171.875 375C154.616 375 140.625 388.991 140.625 406.25C140.625 423.509 154.616 437.5 171.875 437.5Z" fill="white"/>
<path d="M390.625 437.5C407.884 437.5 421.875 423.509 421.875 406.25C421.875 388.991 407.884 375 390.625 375C373.366 375 359.375 388.991 359.375 406.25C359.375 423.509 373.366 437.5 390.625 437.5Z" fill="white"/>
<path d="M446.094 117.949C443.899 115.264 441.133 113.102 437.998 111.618C434.863 110.135 431.437 109.369 427.969 109.375H130.752L124.766 75.4102C124.127 71.7923 122.235 68.515 119.42 66.154C116.605 63.793 113.049 62.4992 109.375 62.5H46.875C42.731 62.5 38.7567 64.1462 35.8265 67.0765C32.8962 70.0067 31.25 73.981 31.25 78.125C31.25 82.269 32.8962 86.2433 35.8265 89.1735C38.7567 92.1038 42.731 93.75 46.875 93.75H96.2695L140.859 346.465C141.498 350.083 143.39 353.36 146.205 355.721C149.02 358.082 152.576 359.376 156.25 359.375H406.25C410.394 359.375 414.368 357.729 417.299 354.799C420.229 351.868 421.875 347.894 421.875 343.75C421.875 339.606 420.229 335.632 417.299 332.701C414.368 329.771 410.394 328.125 406.25 328.125H169.355L163.848 296.875H399.844C405.262 296.868 410.512 294.989 414.705 291.557C418.898 288.124 421.775 283.348 422.852 278.037L450.977 137.412C451.654 134.009 451.568 130.497 450.723 127.132C449.879 123.766 448.298 120.63 446.094 117.949Z" fill="white"/>
</svg>
