<svg width="28" height="30" viewBox="0 0 28 30" fill="none" xmlns="http://www.w3.org/2000/svg">
<path d="M27.0924 16.0734V16.1128C27.0924 17.9537 26.7056 19.7038 26.0096 21.2868L26.0418 21.2044C23.986 25.9928 19.3123 29.2841 13.8685 29.2841C8.4247 29.2841 3.75093 25.9916 1.72858 21.2903L1.69516 21.2044C0.996454 19.5982 0.638724 17.8644 0.644603 16.1128V16.0305C0.644603 11.7387 2.70871 7.93038 5.89739 5.54155L5.93198 5.51771C6.16446 5.33713 6.43131 5.20589 6.7162 5.132C7.00109 5.05811 7.29809 5.04315 7.58899 5.0879L7.57711 5.08675C8.17517 5.15713 8.68611 5.47825 9.00966 5.94028L9.01446 5.9463C9.19482 6.17441 9.32541 6.43782 9.3978 6.7195C9.47019 7.00124 9.48272 7.29494 9.43467 7.58176L9.43582 7.56988C9.39966 7.85613 9.30601 8.13214 9.16059 8.38138C9.0151 8.63062 8.82086 8.84799 8.58945 9.02033L8.5835 9.02391C7.4831 9.84587 6.58969 10.9133 5.97436 12.1413C5.35911 13.3692 5.03878 14.7238 5.03907 16.0973C5.03921 17.6019 5.42391 19.0815 6.15651 20.3958C6.88911 21.71 7.94541 22.8152 9.2251 23.6066C10.5048 24.398 11.9655 24.8492 13.4686 24.9176C14.9716 24.9859 16.4673 24.6691 17.8136 23.9971C19.1598 23.3251 20.312 22.3203 21.1608 21.078C22.0097 19.8357 22.5271 18.397 22.6638 16.8986C22.8005 15.4002 22.5521 13.8917 21.9422 12.5162C21.3322 11.1408 20.381 9.94403 19.1786 9.03945L19.1559 9.02269C18.9248 8.85121 18.7304 8.63513 18.5842 8.38725C18.438 8.1393 18.343 7.86465 18.3047 7.5794L18.3035 7.56866C18.2574 7.28277 18.2714 6.99043 18.3445 6.71026C18.4177 6.43009 18.5484 6.16825 18.7285 5.9415L18.7249 5.9463C18.8901 5.70988 19.1035 5.51112 19.351 5.36319C19.5986 5.21527 19.8747 5.1214 20.1611 5.0879L20.1707 5.08675C20.4594 5.04243 20.7543 5.05811 21.0367 5.13293C21.3191 5.20768 21.5831 5.33985 21.8121 5.52129L21.8073 5.51771C25.033 7.93038 27.0984 11.741 27.0984 16.034V16.0746V16.0722L27.0924 16.0734ZM16.0735 2.84951V13.9138C16.0735 14.4982 15.8413 15.0588 15.428 15.4721C15.0147 15.8854 14.4542 16.1176 13.8697 16.1176C13.2852 16.1176 12.7247 15.8854 12.3114 15.4721C11.8981 15.0588 11.6659 14.4982 11.6659 13.9138V13.866V13.8684V2.83041C11.6659 2.22872 11.9166 1.68554 12.3189 1.29993L12.3201 1.29874C12.7129 0.895235 13.262 0.644531 13.8697 0.644531C14.4773 0.644531 15.0265 0.895235 15.4193 1.29874C15.8227 1.68554 16.0735 2.22753 16.0735 2.82921V2.84951Z" fill="black"/>
</svg>
