<svg width="28" height="31" viewBox="0 0 28 31" fill="none" xmlns="http://www.w3.org/2000/svg">
<g clip-path="url(#clip0_636_119)">
<path d="M27.7703 16.6285V16.6699C27.7703 18.6028 27.3641 20.4405 26.6333 22.1026L26.6671 22.0161C24.5086 27.0439 19.6012 30.4998 13.8851 30.4998C8.16917 30.4998 3.2617 27.0427 1.13826 22.1064L1.10317 22.0161C0.369526 20.3296 -0.00609001 18.5092 7.46691e-05 16.6699V16.5834C7.46691e-05 12.0771 2.16739 8.07839 5.51549 5.57013L5.55187 5.54507C5.79595 5.35548 6.07611 5.21772 6.37525 5.14011C6.67447 5.06249 6.98628 5.04674 7.29172 5.09378L7.27919 5.09257C7.90719 5.16653 8.44368 5.50369 8.78342 5.98877L8.78843 5.99507C8.97781 6.23464 9.11492 6.51123 9.19096 6.807C9.26693 7.10278 9.2801 7.41116 9.22962 7.71237L9.23091 7.69984C9.19289 8.00042 9.09459 8.29025 8.94187 8.55194C8.78914 8.81371 8.58516 9.04183 8.34215 9.22283L8.33592 9.22662C7.18053 10.0897 6.24244 11.2105 5.5964 12.4998C4.95029 13.7891 4.61399 15.2114 4.6142 16.6537C4.61442 18.2335 5.01831 19.7871 5.78757 21.1671C6.55683 22.547 7.6659 23.7075 9.0096 24.5384C10.3533 25.3694 11.887 25.8432 13.4653 25.915C15.0435 25.9867 16.6139 25.654 18.0274 24.9485C19.441 24.2429 20.6508 23.1878 21.5422 21.8833C22.4334 20.5789 22.9766 19.0683 23.1202 17.495C23.2638 15.9217 23.003 14.3378 22.3625 12.8936C21.7221 11.4493 20.7232 10.1927 19.4608 9.24288L19.4369 9.22533C19.1943 9.04526 18.9901 8.81837 18.8366 8.5581C18.6831 8.29777 18.5833 8.00937 18.5432 7.70987L18.5419 7.69856C18.4935 7.39841 18.5081 7.09147 18.585 6.79727C18.6618 6.50314 18.7991 6.2282 18.9882 5.99006L18.9844 5.99507C19.1578 5.74684 19.3819 5.5382 19.6418 5.38283C19.9017 5.22753 20.1917 5.12901 20.4924 5.09378L20.5024 5.09257C20.8056 5.04603 21.1152 5.06257 21.4118 5.14104C21.7083 5.21958 21.9855 5.35834 22.226 5.54879L22.221 5.54507C25.608 8.07839 27.7765 12.0796 27.7765 16.5872V16.6298V16.6273L27.7703 16.6285ZM16.0024 2.76479V14.3823C16.0024 14.996 15.7586 15.5845 15.3246 16.0185C14.8907 16.4525 14.5001 16.6749 13.8864 16.6749C13.2727 16.6749 12.8182 16.4512 12.3842 16.0172C11.9502 15.5833 11.7064 14.9947 11.7064 14.381V14.3309V14.3334V2.74348C11.7064 2.11171 11.9697 1.54137 12.3921 1.13648L12.3934 1.13523C12.8058 0.711549 13.2164 0.535645 13.8544 0.535645C14.4924 0.535645 14.9031 0.712802 15.3155 1.13648C15.7391 1.54262 16.0024 2.11171 16.0024 2.74348V2.76479Z" fill="url(#paint0_linear_636_119)"/>
<path d="M27.0924 16.5734V16.6128C27.0924 18.4537 26.7056 20.2038 26.0096 21.7868L26.0418 21.7044C23.986 26.4928 19.3123 29.7841 13.8685 29.7841C8.4247 29.7841 3.75093 26.4916 1.72858 21.7903L1.69516 21.7044C0.996454 20.0982 0.638724 18.3644 0.644603 16.6128V16.5305C0.644603 12.2387 2.70871 8.43038 5.8974 6.04155L5.93198 6.0177C6.16446 5.83713 6.43131 5.70589 6.7162 5.632C7.00109 5.55811 7.29809 5.54315 7.58899 5.5879L7.57711 5.58675C8.17517 5.65713 8.6861 5.97825 9.00966 6.44028L9.01446 6.4463C9.19482 6.67441 9.32541 6.93782 9.3978 7.2195C9.47019 7.50124 9.48272 7.79494 9.43467 8.08176L9.43582 8.06988C9.39966 8.35613 9.30601 8.63214 9.16059 8.88138C9.0151 9.13062 8.82086 9.34799 8.58945 9.52033L8.5835 9.52391C7.4831 10.3459 6.58969 11.4133 5.97436 12.6413C5.35911 13.8692 5.03878 15.2238 5.03907 16.5973C5.03921 18.1019 5.42391 19.5815 6.15651 20.8958C6.88911 22.21 7.94541 23.3152 9.2251 24.1066C10.5048 24.898 11.9655 25.3492 13.4686 25.4176C14.9716 25.4859 16.4673 25.1691 17.8136 24.4971C19.1598 23.8251 20.312 22.8203 21.1608 21.578C22.0097 20.3357 22.5271 18.897 22.6638 17.3986C22.8005 15.9002 22.5521 14.3917 21.9422 13.0162C21.3322 11.6408 20.381 10.444 19.1786 9.53945L19.1559 9.52269C18.9248 9.35121 18.7304 9.13513 18.5842 8.88725C18.438 8.6393 18.343 8.36465 18.3047 8.0794L18.3035 8.06866C18.2574 7.78276 18.2714 7.49043 18.3445 7.21026C18.4177 6.93009 18.5484 6.66825 18.7285 6.4415L18.7249 6.4463C18.8901 6.20988 19.1035 6.01112 19.351 5.86319C19.5986 5.71527 19.8747 5.6214 20.1611 5.5879L20.1707 5.58675C20.4594 5.54243 20.7543 5.55811 21.0367 5.63293C21.3191 5.70768 21.5831 5.83985 21.8121 6.02129L21.8073 6.0177C25.033 8.43038 27.0984 12.241 27.0984 16.534V16.5746V16.5722L27.0924 16.5734ZM16.0735 3.34951V14.4138C16.0735 14.9982 15.8413 15.5588 15.428 15.9721C15.0147 16.3854 14.4542 16.6176 13.8697 16.6176C13.2852 16.6176 12.7247 16.3854 12.3114 15.9721C11.8981 15.5588 11.6659 14.9982 11.6659 14.4138V14.366V14.3684V3.33041C11.6659 2.72872 11.9166 2.18554 12.3189 1.79993L12.3201 1.79874C12.7129 1.39524 13.262 1.14453 13.8697 1.14453C14.4773 1.14453 15.0265 1.39524 15.4193 1.79874C15.8227 2.18554 16.0735 2.72753 16.0735 3.32921V3.34951Z" fill="white"/>
</g>
<defs>
<linearGradient id="paint0_linear_636_119" x1="13.8883" y1="0.535645" x2="13.8883" y2="30.4998" gradientUnits="userSpaceOnUse">
<stop stop-color="#F1C40F"/>
<stop offset="0.255208" stop-color="#E74C3C"/>
<stop offset="0.5" stop-color="#8E44AD"/>
<stop offset="0.734375" stop-color="#3498DB"/>
<stop offset="1" stop-color="#2ECC71"/>
</linearGradient>
<clipPath id="clip0_636_119">
<rect width="27.7804" height="30" fill="white" transform="translate(0 0.5)"/>
</clipPath>
</defs>
</svg>
