<svg width="464" height="501" viewBox="0 0 464 501" fill="none" xmlns="http://www.w3.org/2000/svg">
<g clip-path="url(#clip0_686_32)">
<path d="M462.838 269.483V270.173C462.838 302.387 456.068 333.015 443.889 360.718L444.452 359.276C408.477 443.072 326.686 500.671 231.419 500.671C136.153 500.671 54.3616 443.052 18.9711 360.78L18.3861 359.276C6.15877 331.167 -0.1015 300.827 0.00124449 270.173V268.731C0.00124449 193.625 36.1232 126.98 91.9249 85.1762L92.5311 84.7585C96.5991 81.5986 101.269 79.3027 106.254 78.0091C111.241 76.7156 116.438 76.453 121.529 77.237L121.32 77.2168C131.786 78.4494 140.728 84.0688 146.39 92.1535L146.474 92.2585C149.63 96.2514 151.915 100.861 153.183 105.791C154.449 110.72 154.668 115.86 153.827 120.88L153.849 120.671C153.215 125.681 151.576 130.512 149.031 134.873C146.486 139.236 143.086 143.038 139.036 146.054L138.932 146.118C119.675 160.502 104.041 179.182 93.2733 200.67C82.5048 222.159 76.8998 245.865 76.9034 269.902C76.907 296.232 83.6385 322.126 96.4595 345.125C109.28 368.124 127.765 387.465 150.16 401.315C172.555 415.164 198.117 423.06 224.421 424.257C250.726 425.453 276.899 419.908 300.457 408.149C324.017 396.389 344.18 378.804 359.036 357.063C373.89 335.323 382.944 310.146 385.337 283.924C387.73 257.702 383.383 231.304 372.709 207.233C362.035 183.163 345.387 162.219 324.346 146.389L323.949 146.096C319.905 143.095 316.502 139.313 313.944 134.976C311.385 130.637 309.722 125.83 309.053 120.838L309.032 120.65C308.224 115.648 308.469 110.532 309.749 105.628C311.03 100.726 313.319 96.144 316.47 92.175L316.407 92.2585C319.297 88.1213 323.032 84.644 327.364 82.0545C331.696 79.4662 336.527 77.8242 341.539 77.237L341.707 77.2168C346.76 76.4411 351.92 76.7168 356.863 78.0246C361.806 79.3337 366.425 81.6463 370.433 84.8206L370.35 84.7585C426.8 126.98 462.942 193.667 462.942 268.794V269.504V269.463L462.838 269.483ZM266.707 38.4204V232.045C266.707 242.274 262.643 252.083 255.411 259.316C248.178 266.548 241.668 270.256 231.44 270.256C221.211 270.256 213.636 266.527 206.403 259.294C199.171 252.063 195.107 242.253 195.107 232.025V231.189V231.231V38.0653C195.107 27.5358 199.495 18.0301 206.535 11.282L206.556 11.2611C213.43 4.19981 220.273 1.26807 230.907 1.26807C241.541 1.26807 248.384 4.22069 255.258 11.282C262.319 18.051 266.707 27.5358 266.707 38.0653V38.4204Z" fill="url(#paint0_linear_686_32)"/>
<path d="M451.537 268.559V269.215C451.537 299.897 445.091 329.065 433.491 355.448L434.028 354.076C399.765 433.883 321.869 488.738 231.14 488.738C140.41 488.738 62.5135 433.862 28.8078 355.508L28.2507 354.076C16.6056 327.305 10.6435 298.409 10.7414 269.215V267.843C10.7414 196.313 45.1432 132.842 98.288 93.0281L98.8643 92.6307C102.739 89.6212 107.187 87.4338 111.935 86.2023C116.683 84.9708 121.633 84.7214 126.481 85.4672L126.283 85.4481C136.251 86.6212 144.766 91.9732 150.159 99.6737L150.239 99.7739C153.245 103.576 155.422 107.966 156.628 112.661C157.834 117.356 158.043 122.251 157.243 127.032L157.262 126.834C156.659 131.604 155.098 136.205 152.675 140.359C150.25 144.513 147.012 148.135 143.156 151.008L143.056 151.067C124.716 164.767 109.826 182.558 99.5708 203.023C89.3166 223.489 83.9777 246.065 83.9825 268.956C83.9849 294.034 90.3965 318.694 102.607 340.598C114.817 362.502 132.422 380.923 153.75 394.113C175.078 407.303 199.423 414.823 224.474 415.962C249.525 417.101 274.453 411.82 296.891 400.621C319.327 389.421 338.531 372.674 352.678 351.968C366.826 331.263 375.449 307.286 377.728 282.312C380.006 257.34 375.867 232.198 365.701 209.273C355.535 186.349 339.681 166.403 319.641 151.326L319.263 151.047C315.411 148.189 312.171 144.588 309.734 140.456C307.298 136.324 305.714 131.746 305.077 126.992L305.056 126.813C304.288 122.048 304.521 117.176 305.74 112.507C306.96 107.837 309.139 103.473 312.14 99.694L312.08 99.7739C314.833 95.8336 318.389 92.5209 322.515 90.0555C326.641 87.5901 331.243 86.0257 336.016 85.4672L336.176 85.4481C340.988 84.7095 345.903 84.9708 350.609 86.2178C355.317 87.4636 359.716 89.6665 363.534 92.6904L363.454 92.6307C417.215 132.842 451.638 196.353 451.638 267.903V268.578V268.539L451.537 268.559ZM267.889 48.1608V232.565C267.889 242.306 264.019 251.649 257.132 258.538C250.243 265.425 240.901 269.295 231.159 269.295C221.418 269.295 212.076 265.425 205.188 258.538C198.3 251.649 194.43 242.306 194.43 232.565V231.769V231.81V47.8424C194.43 37.8144 198.608 28.7613 205.313 22.3345L205.333 22.3146C211.88 15.5895 221.031 11.4111 231.159 11.4111C241.287 11.4111 250.44 15.5895 256.986 22.3146C263.71 28.7613 267.889 37.7944 267.889 47.8225V48.1608Z" fill="black"/>
</g>
<defs>
<linearGradient id="paint0_linear_686_32" x1="231.471" y1="1.26807" x2="231.471" y2="500.671" gradientUnits="userSpaceOnUse">
<stop stop-color="#F1C40F"/>
<stop offset="0.255208" stop-color="#E74C3C"/>
<stop offset="0.5" stop-color="#8E44AD"/>
<stop offset="0.734375" stop-color="#3498DB"/>
<stop offset="1" stop-color="#2ECC71"/>
</linearGradient>
<clipPath id="clip0_686_32">
<rect width="463.007" height="500" fill="white" transform="translate(0 0.671387)"/>
</clipPath>
</defs>
</svg>
